<?xml version="1.0" encoding="utf-8"?>
<!-- Generator: Adobe Illustrator 17.1.0, SVG Export Plug-In . SVG Version: 6.00 Build 0)  -->
<!DOCTYPE svg PUBLIC "-//W3C//DTD SVG 1.1//EN" "http://www.w3.org/Graphics/SVG/1.1/DTD/svg11.dtd">
<svg version="1.1" id="Layer_1" xmlns="http://www.w3.org/2000/svg" xmlns:xlink="http://www.w3.org/1999/xlink" x="0px" y="0px"
	 viewBox="0 0 1487.8 737.8" enable-background="new 0 0 1487.8 737.8" xml:space="preserve">
<g>
	<path d="M1487.3,452.6c-2.5-42.7-10.2-84-34.1-120.7c-26-40-59.4-42.9-92.3-8.2c-25.3,26.6-36.7,59-39.5,95.1
		c-4.2,53.7,1.2,105.7,23.6,155.3c0.3,0.6,0,1.5,0,2.8c-225-7-444.7,30.5-664.1,79.4c6.5-20.5,13.8-38.9,18.2-58
		c22.2-94.3,15-186.1-26-274.3c-11.3-24.4-27.9-45.5-49.6-61.9C575.3,225.7,522,229,479,271.6c-32.7,32.3-50.9,72.9-63.1,116.3
		c-18.2,64.5-19.6,129.8-8.6,195.8c7.1,43,17.8,84.9,32.9,125.7c1.1,2.9-0.3,9.6-2,10.2c-33.8,11.1-67,26.2-104.1,13.1
		c-39.9-14.1-79.8-28.1-120.1-40.8c-69.8-22-139.9-42.9-209.8-64.3c-0.7-0.2-1.2-0.8-4.1-3c24.6,3.2,46.6,6.4,68.6,8.9
		c73,8.1,143.6,27,214.3,45.8c33.8,9,68.4,11.9,102.7,0.9c14.7-4.7,14.7-5.3,11.1-20.2c-15.1-61-23.6-122.8-20.5-185.6
		c3.3-67.9,21-132.3,55.1-191.5c18.1-31.4,40.6-59.3,75.3-74.1c39.2-16.8,75.4-7.4,109.7,14c27.2,17,46.5,41.5,61.9,69.2
		c26.8,48.4,40.3,101,46,155.6c4.4,41.8,4.3,83.7-2.1,125.4c-3.4,22.5-3.2,22,21.5,18.7c61.9-8.2,123.8-16.4,185.8-23.3
		c87.6-9.8,175.5-14.4,263.6-13.3c36.5,0.4,73,3.6,109.5,5.9c13.2,0.8,14.7-0.3,12-13.4c-7.9-38.9-14.4-78-12-117.9
		c2.9-48.2,20.1-90.5,54.8-124.7c30.7-30.2,65.9-27.7,92.1,6.8C1480.8,353.6,1490,401.7,1487.3,452.6z"/>
	<path d="M1054,186.1c-157.1,27-310.6,8.9-463.9-37c7.1-7.9,12.6-14.6,18.7-20.6C667.3,70.1,736.3,29.2,816.5,9.4
		c71-17.6,140.7-9.7,208.3,17.9c53.8,22,99.9,54.9,140.3,96.5c5.6,5.8,14.2,10.5,22.1,12c59.9,11.3,118.1,27.4,170.9,59
		c36.5,21.8,68.4,49.2,94.3,83.3c-55.9-55.2-123.8-87.8-199.3-105.4c-21.1-4.9-42.8-6.9-64-11.3c-5.2-1.1-10.9-5.1-14.2-9.5
		C1125.3,87.2,1060,48,980.9,31.6c-97.7-20.3-185.7,4.7-266.4,60.2c-13.5,9.2-25.9,20-38.3,30.7c-10.1,8.7-9.1,13.7,3.7,18
		c23.8,8,47.7,16,72,22.3c82.7,21.6,166.8,32.1,252.4,27.6C1020.9,189.6,1037.4,187.6,1054,186.1z"/>
	<path d="M886.7,277.7c-11.1-6.3-23.1-9.8-22.5-25.3c0.1-2.1-5-6.1-7.9-6.4c-24.9-2.8-49.9-4.9-74.9-7.1c-0.4,0-1,1-2.1,2.2
		c1.4,1.4,2.5,3.4,4.2,4.3c56.5,30.9,112.6,62.6,169.8,92.1c55.2,28.5,114.5,43.8,176.7,45.4c31.9,0.8,63.8-1.5,95.7-2.1
		c8.8-0.1,11.3-5.4,14-12.3c12.5-32.4,29.5-61.9,57.8-83.5c19.2-14.8,41.3-20.5,67.2-21.1c-61.6,26.2-85.3,78.8-102.3,136.1
		c-2.4,8.2-5.9,12.4-14.5,12.6c-89.6,2.3-179,0.9-262.4-37c-38.7-17.6-74.6-41.4-111.4-62.9c-68.4-40.1-136.9-79.9-210.8-109.5
		c-1.6-0.7-3.2-1.5-4.3-3.9c12.6,2.7,25.6,4.2,37.7,8.2c57.3,18.7,116.3,23.1,175.9,21.8c11.1-0.2,15,2.9,14.3,13.9
		C886.2,254.3,886.7,265.3,886.7,277.7z"/>
	<path d="M571.6,281c35,17.2,54.9,48,70.4,82c23.5,51.8,26.5,106.9,22,162.4c-3.9,48.7-16.3,95.3-42.3,137.4
		c-11.6,18.7-25.7,35-44.3,47.1c-38.1,24.7-82.2,16.7-108.9-20.3c-5.5-7.6-9.7-16-13.1-21.7c15.5,7.1,31.9,15.4,48.9,22
		c13.6,5.3,27,1.6,39.5-5.1c28.3-15.2,46.8-40,62.6-66.7c17.6-29.8,27.5-62.2,32.1-96.8c5.3-40.5,5.1-80.6-2.9-120.4
		C625.5,351.1,607.4,313.8,571.6,281z"/>
	<path d="M556.5,35.7c-57.9-1.2-115.7-2.3-166.7-3.4c84.4-10.4,175.9-19.1,268.9-14.9c-20.1,10.4-40.4,19.5-59.2,31
		c-29.9,18.3-59,37.8-87.9,57.5c-8.8,6-16.6,8.2-27.4,6.2c-72.3-13.8-145.1-23.3-218.8-23.8c-15.2-0.1-30.4,0-45.6,0
		c-0.1-1.2-0.1-2.4-0.2-3.6c27.1-2.7,54.2-7.2,81.3-7.9c62.4-1.6,124.9-1.3,187.3-1.9c2.9,0,6-0.8,8.6-2.1
		c18.6-9.5,37.1-19.2,55.6-29c1.8-0.9,3.1-2.8,4.6-4.2C556.8,38.4,556.7,37.1,556.5,35.7z"/>
	<path d="M13.7,410.2c78.9-4.5,154-1.5,228.4,11.9c42.3,7.6,34.2,1.1,32,40.2c-0.1,2.2-0.8,4.4-1.5,8.2
		C189,441,104.4,418.5,13.7,410.2z"/>
	<path d="M288.9,296.2c1.6-17.5,3-33.6,4.7-49.8c0.7-6.8-1.5-11.1-8.4-12.6c-61.2-13.5-122.2-16.5-182.3,5.6
		c-6.8,2.5-13.3,5.8-19.7,9c-6.1,3.1-11.9,6.7-17.9,10.1c-0.7-0.8-1.3-1.7-2-2.5c12.5-8.9,24.2-19.2,37.7-26.4
		c43.5-23,90.8-27.2,138.8-24.2c23.5,1.5,46.8,5.4,70.2,8.3c2.9,0.4,5.8,1.4,9.1,2.3C309.2,242.9,299.3,268.9,288.9,296.2z"/>
	<path d="M1440.5,356.4c14.2,20.5,20.6,43.6,22.4,67.6c3,40.3,0,80.1-17.7,117.3c-4.3,9.2-10.1,18.1-16.9,25.5
		c-19.9,21.4-44.5,17.2-59-10.6c2.9,1.2,4.7,1.8,6.4,2.8c12.1,7.2,24,6.3,35.6-1c15.9-10,26.2-24.6,31.8-42
		c15.4-47.5,18.8-95.4,2-143.4c-1.5-4.3-2.8-8.7-4.1-13.1C1440.7,358.5,1440.6,357.4,1440.5,356.4z"/>
	<path d="M981.3,522.4c-29.2,1.8-58.4,3.7-87.5,5.5c-23.6,1.5-47.1,2.6-70.7,4.5c-9.3,0.7-12.9-1.8-12.7-11.7
		c1.1-45-0.8-89.9-12.4-134c2.6,7.5,5.5,14.8,7.8,22.4c2.5,8.4,4.7,16.9,6.7,25.4c2,8.1,3.9,16.3,5.3,24.6c2.6,15,4.9,30,7,45.1
		c1.1,7.6,5,11.8,12.5,12.5c4.5,0.4,9.1,0.6,13.7,0.7c43.4,1.2,86.8,2.4,130.2,3.6C981.2,521.4,981.3,521.9,981.3,522.4z"/>
	<path d="M1166.1,184.3c16.2,31.2,23.6,61.9,25.1,93.3c-3.2-14.8-6-30.5-10.1-45.8C1177.1,216.8,1171.8,202.2,1166.1,184.3z"/>
</g>
</svg>
