<svg version="1.1" xmlns="http://www.w3.org/2000/svg" xmlns:xlink="http://www.w3.org/1999/xlink" x="0px" y="0px"
	 viewBox="0 0 261.737 261.737" xml:space="preserve">
<g>
	<path d="M82.737,48.129C82.737,21.588,104.325,0,130.865,0c26.541,0,48.129,21.588,48.129,48.129
		c0,17.942-10.329,34.56-26.35,42.765H109.08C93.065,82.689,82.737,66.071,82.737,48.129z"/>
	<path d="M111.795,102.827h38.128c15.335,45.3,32.036,79.103,48.177,97.761H63.619
		C79.771,181.918,96.472,148.11,111.795,102.827z"/>
	<polygon points="254.845,261.737 6.892,261.737 6.892,212.522 31.505,212.522 50.498,212.522 
		211.221,212.522 230.226,212.522 254.845,212.522 	"/>
</g>
<g>
</g>
<g>
</g>
<g>
</g>
<g>
</g>
<g>
</g>
<g>
</g>
<g>
</g>
<g>
</g>
<g>
</g>
<g>
</g>
<g>
</g>
<g>
</g>
<g>
</g>
<g>
</g>
<g>
</g>
</svg>
